# xmcd
#
# Track frame offsets: 
#        150
#        17244
#        33556
#        55006
#        82561
#        103550
#        119463
#        150757
#        171365
#        182375
#        215336
#        245955
#        262718
#        284336
#        306042
#        321640
#        340306
#
# Disc length: 4773 seconds
#
# Revision: 0
# Processed by: cddbd v1.5.2PL0 Copyright (c) Steve Scherf et al.
# Submitted via: ExactAudioCopy v1.3
#
DISCID=e112a311
DTITLE=Various Artists  - Akella Presents - vol.138 - Electric Blues  
DTITLE=CD2
DYEAR=2018
DGENRE=Blues
TTITLE0=Guitar Mikey And The Real Thing - It's A Sin
TTITLE1=Cadillac Johnson - Troubled
TTITLE2=Junkbelly - Rainin
TTITLE3=5Live - Spooky
TTITLE4=Awek - Magic Night
TTITLE5=Jimmy Nalls - Mellow Down Easy
TTITLE6=Delta Generators - Night of the Johnstown Flood
TTITLE7=Dion - The Thunderer
TTITLE8=Damon Fowler - Some Fun
TTITLE9=Big Al Dorn and the Blues Howlers - The Love Club
TTITLE10=Main Street Blues - Tin Pan Alley
TTITLE11=The Robert Charles Blues Band - Faith Healer
TTITLE12=Robbert Fossen - Did Somebody Make A Fool Outta You
TTITLE13=Jim Gustin and Truth Jones - Memphis
TTITLE14=Paul Thorn - She Won't Cheat on Us
TTITLE15=Bill Johnson - Baggage Blues
TTITLE16=Delbert Mcclinton - Pulling the Strings
EXTD=
EXTT0=
EXTT1=
EXTT2=
EXTT3=
EXTT4=
EXTT5=
EXTT6=
EXTT7=
EXTT8=
EXTT9=
EXTT10=
EXTT11=
EXTT12=
EXTT13=
EXTT14=
EXTT15=
EXTT16=
PLAYORDER=
